<svg width="24" height="24" viewBox="0 0 24 24" fill="none" xmlns="http://www.w3.org/2000/svg">
<path fill-rule="evenodd" clip-rule="evenodd" d="M20.4854 20.4853C18.2349 22.7357 15.1827 24 12.0001 24C8.81751 24 5.76526 22.7357 3.51482 20.4853C1.26439 18.2348 0.000103884 15.1826 0.000103884 12C0.000103884 8.8174 1.26439 5.76516 3.51482 3.51472C5.76526 1.26428 8.81751 -9.50197e-08 12.0001 -9.50197e-08C15.1827 -9.50197e-08 18.2349 1.26428 20.4854 3.51472C22.7358 5.76516 24.0001 8.8174 24.0001 12C24.0001 15.1826 22.7358 18.2348 20.4854 20.4853ZM16.2427 7.75736C15.7741 7.28873 15.0143 7.28873 14.5457 7.75736L12.0001 10.3029L9.45452 7.75736C8.98589 7.28873 8.22609 7.28873 7.75746 7.75736V7.75736C7.28883 8.22599 7.28883 8.98579 7.75746 9.45441L10.303 12L7.75746 14.5456C7.28883 15.0142 7.28883 15.774 7.75746 16.2426V16.2426C8.22609 16.7113 8.98589 16.7113 9.45452 16.2426L12.0001 13.6971L14.5457 16.2426C15.0143 16.7113 15.7741 16.7113 16.2427 16.2426V16.2426C16.7114 15.774 16.7114 15.0142 16.2427 14.5456L13.6972 12L16.2427 9.45442C16.7114 8.98579 16.7114 8.22599 16.2427 7.75736V7.75736Z" fill="#FFE3E3"/>
</svg>
