<svg width="77" height="75" viewBox="0 0 77 75" fill="none" xmlns="http://www.w3.org/2000/svg">
<g clip-path="url(#clip0_12_14223)">
<path d="M59.8897 65.2558C64.373 60.0056 55.2051 44.817 39.4126 31.3311C23.62 17.8452 7.18319 11.1688 2.69985 16.419C-1.7835 21.6692 7.38441 36.8578 23.177 50.3437C38.9695 63.8296 55.4063 70.506 59.8897 65.2558Z" fill="#B87757"/>
<path d="M34.4265 30.6191C45.3252 39.9045 47.2243 44.4732 42.8338 49.5814C36.9847 56.4253 32.7025 54.8433 21.7049 45.5728C10.7072 36.3023 4.80252 25.2563 8.33768 21.1865C11.8728 17.1168 23.5129 21.2349 34.4265 30.6191Z" fill="#BED3E5" stroke="#BED3E5" stroke-width="0.2159" stroke-miterlimit="10"/>
<path d="M7.07225 28.253L15.3193 18.5213C15.4874 18.2938 15.8286 18.5459 15.7594 18.7586L10.702 33.5732C10.6328 33.7858 10.974 34.038 11.1421 33.8105L21.4658 21.7448C21.6339 21.5173 21.3916 21.2503 21.2086 21.3789L7.3294 28.6189C7.14645 28.7474 6.90414 28.4804 7.07225 28.253Z" stroke="#002A50" stroke-width="0.2006" stroke-miterlimit="10"/>
<path d="M15.8879 18.9413C15.8039 19.055 15.6061 19.0847 15.4924 19.0006L15.0226 18.5655C14.9089 18.4815 14.8792 18.2837 14.9632 18.17C15.0473 18.0562 15.2451 18.0266 15.3588 18.1106L15.8286 18.5457C15.9423 18.6298 15.972 18.8275 15.8879 18.9413Z" fill="#002A50"/>
<path d="M7.54201 28.6877C7.45796 28.8014 7.26017 28.8311 7.14644 28.747L6.57777 28.3268C6.46404 28.2427 6.43435 28.0449 6.51841 27.9312C6.60246 27.8175 6.80024 27.7878 6.91398 27.8718L7.38375 28.3069C7.59638 28.3761 7.62606 28.5739 7.54201 28.6877Z" fill="#002A50"/>
<path d="M10.9741 34.038C10.8901 34.1517 10.6923 34.1814 10.5786 34.0973L10.1088 33.6622C9.99504 33.5782 9.96536 33.3804 10.0494 33.2667C10.1335 33.1529 10.3312 33.1232 10.445 33.2073L10.9148 33.6424C11.0285 33.7264 11.0582 33.9242 10.9741 34.038Z" fill="#002A50"/>
<path d="M21.7327 21.5021C21.6486 21.6159 21.4508 21.6455 21.3371 21.5615L20.7684 21.1412C20.6547 21.0572 20.625 20.8594 20.7091 20.7457C20.7931 20.6319 20.9909 20.6022 21.1046 20.6863L21.5744 21.1214C21.7871 21.1906 21.8167 21.3884 21.7327 21.5021Z" fill="#002A50"/>
<path d="M39.1009 55.7037C39.185 55.5899 39.3828 55.5602 39.4965 55.6443L39.9663 56.0794C40.08 56.1634 40.1097 56.3612 40.0256 56.475C39.9416 56.5887 39.7438 56.6184 39.6301 56.5343L39.1603 56.0992C39.0466 56.0152 39.0317 55.9163 39.1009 55.7037Z" fill="#002A50"/>
<path d="M47.4469 45.9571C47.5309 45.8433 47.7287 45.8137 47.8424 45.8977L48.3122 46.3328C48.426 46.4169 48.4556 46.6147 48.3716 46.7284C48.2875 46.8421 48.0897 46.8718 47.976 46.7878L47.5062 46.3527C47.3925 46.2686 47.3628 46.0708 47.4469 45.9571Z" fill="#002A50"/>
<path d="M44.0147 40.607C44.0988 40.4933 44.2966 40.4636 44.4103 40.5476L44.8801 40.9827C44.9938 41.0668 45.0235 41.2646 44.9395 41.3783C44.8554 41.492 44.6576 41.5217 44.5439 41.4377L44.0741 41.0026C43.9604 40.9185 43.9307 40.7207 44.0147 40.607Z" fill="#002A50"/>
<path d="M33.2562 53.1426C33.3403 53.0289 33.538 52.9992 33.6518 53.0833L34.1215 53.5184C34.2353 53.6024 34.265 53.8002 34.1809 53.9139C34.0969 54.0277 33.8991 54.0574 33.7853 53.9733L33.3304 53.6371C33.2018 53.4541 33.1721 53.2564 33.2562 53.1426Z" fill="#002A50"/>
<path d="M59.9582 65.3144C62.2721 62.5403 60.9465 57.0765 56.8271 50.5152C51.5015 47.3708 48.1688 48.0732 44.0305 52.8401C40.9304 56.4401 40.9109 59.6788 44.9757 64.5293C52.0963 67.5055 57.6294 67.9897 59.9582 65.3144Z" fill="#D7A793"/>
<path d="M47.9166 46.392L39.6696 56.1238C39.5015 56.3512 39.1603 56.0991 39.2295 55.8864L44.2869 41.0718C44.3561 40.8592 44.0149 40.607 43.8468 40.8345L33.5231 52.9003C33.355 53.1277 33.5973 53.3947 33.7803 53.2661L47.5606 46.041C47.8424 45.8976 48.0847 46.1646 47.9166 46.392Z" stroke="#002A50" stroke-width="0.2006" stroke-miterlimit="10"/>
<path d="M42.6266 56.2867C42.7106 56.1729 42.9084 56.1433 43.0221 56.2273L43.4919 56.6624C43.6056 56.7465 43.6353 56.9442 43.5513 57.058C43.4672 57.1717 43.2694 57.2014 43.1557 57.1173L42.6859 56.6822C42.587 56.6971 42.5573 56.4993 42.6266 56.2867Z" fill="#002A50"/>
<path d="M48.2235 49.7842C48.3075 49.6705 48.5053 49.6408 48.6191 49.7249L49.0888 50.16C49.2026 50.244 49.2322 50.4418 49.1482 50.5555C49.0641 50.6693 48.8664 50.6989 48.7526 50.6149L48.2828 50.1798C48.1691 50.0957 48.1394 49.898 48.2235 49.7842Z" fill="#002A50"/>
<path d="M47.7485 46.6193L43.0369 56.326C42.9677 56.5387 43.1803 56.6079 43.2644 56.4941L48.5103 50.3475C48.5943 50.2338 48.4657 50.0509 48.2828 50.1794L39.7388 55.9109" stroke="#002A50" stroke-width="0.2159" stroke-miterlimit="10"/>
<path d="M48.923 29.637L12.5096 47.5543C11.9916 47.8304 11.22 47.5907 11.0201 46.9886C10.7664 46.4728 11.0307 45.6808 11.6317 45.4561L48.1281 27.5903C48.6461 27.3142 49.4178 27.554 49.6176 28.156C49.7345 28.7065 49.524 29.4124 48.923 29.637Z" fill="#9DBBCE"/>
<path d="M62.8078 29.2418L53.3159 33.8979C50.1159 35.5076 46.2174 34.1675 44.799 30.891C43.3266 27.7009 44.7891 23.6954 48.0723 22.1374L57.5642 17.4812C59.2058 16.7022 61.0865 17.3896 61.8496 18.9414L64.4861 24.8907C65.1953 26.529 64.3955 28.5491 62.8078 29.2418Z" fill="#9DBBCE"/>
<path d="M13.2571 46.8638L12.4633 47.2101C11.9439 47.487 11.1701 47.2466 10.9697 46.6429C10.7153 46.1257 10.9804 45.3316 11.583 45.1063L12.4307 44.6737C12.9502 44.3968 13.7239 44.6372 13.9244 45.2408C14.1248 45.8445 13.8305 46.5006 13.2571 46.8638Z" fill="#B5C6D2"/>
<path d="M43.333 30.238L41.4021 31.1689L42.3404 33.2234L44.2713 32.2924L43.333 30.238Z" fill="#B5C6D2"/>
</g>
<defs>
<clipPath id="clip0_12_14223">
<rect width="68.0606" height="64.7" fill="white" transform="translate(0 10.1016) rotate(-8.53481)"/>
</clipPath>
</defs>
</svg>
