<svg width="58" height="58" viewBox="0 0 58 58" fill="none" xmlns="http://www.w3.org/2000/svg">
<g clip-path="url(#clip0_12_14249)">
<path d="M24.7 18.7999L26.8 23.9999C26.9 24.1999 27.3 24.0999 27.2 23.7999L25.1 18.5999C25 18.3999 24.6 18.5999 24.7 18.7999Z" fill="#D2A553"/>
<path d="M17.2 0.300146L23.4 15.6001C23.5 15.8001 23.9 15.7001 23.8 15.4001L17.6 0.100146C17.5 -0.0998544 17.1 0.000145584 17.2 0.300146Z" fill="#D2A553"/>
<path d="M18.6998 24.9003L23.7998 27.1003C23.9998 27.2003 24.1998 26.8003 23.9998 26.7003L18.8998 24.5003C18.6998 24.4003 18.4998 24.8003 18.6998 24.9003Z" fill="#D2A553"/>
<path d="M0.299884 17.0003L15.4999 23.5003C15.6999 23.6003 15.8999 23.2003 15.6999 23.1003L0.499884 16.7003C0.299884 16.6003 0.0998837 16.9003 0.299884 17.0003Z" fill="#D2A553"/>
<path d="M18.7999 33.3001L23.9999 31.2001C24.1999 31.1001 24.0999 30.7001 23.7999 30.8001L18.5999 32.9001C18.3999 33.0001 18.5999 33.4001 18.7999 33.3001Z" fill="#D2A553"/>
<path d="M0.299901 40.8L15.5999 34.6C15.7999 34.5 15.6999 34.1 15.3999 34.2L0.0999014 40.4C-0.100099 40.5 -9.85563e-05 40.9 0.299901 40.8Z" fill="#D2A553"/>
<path d="M24.8998 39.3003L27.0998 34.2003C27.1998 34.0003 26.7998 33.8003 26.6998 34.0003L24.4998 39.1003C24.3998 39.3003 24.7998 39.5003 24.8998 39.3003Z" fill="#D2A553"/>
<path d="M16.9999 57.7001L23.4999 42.5001C23.5999 42.3001 23.1999 42.1001 23.0999 42.3001L16.5999 57.5001C16.5999 57.7001 16.8999 57.9001 16.9999 57.7001Z" fill="#D2A553"/>
<path d="M33.2999 39.2L31.1999 34C31.0999 33.8 30.6999 33.9 30.7999 34.2L32.8999 39.4C32.9999 39.6 33.3999 39.4 33.2999 39.2Z" fill="#D2A553"/>
<path d="M40.7998 57.7L34.5998 42.4C34.4998 42.2 34.0998 42.2999 34.1998 42.5999L40.3998 57.9C40.4998 58.1 40.8998 58 40.7998 57.7Z" fill="#D2A553"/>
<path d="M39.3 33.1003L34.1 31.0003C33.9 30.9003 33.7 31.3003 33.9 31.4003L39 33.6003C39.3 33.6003 39.5 33.2003 39.3 33.1003Z" fill="#D2A553"/>
<path d="M57.6999 41.0003L42.4999 34.5003C42.2999 34.4003 42.0999 34.8003 42.2999 34.9003L57.4999 41.4003C57.6999 41.5003 57.8999 41.1003 57.6999 41.0003Z" fill="#D2A553"/>
<path d="M39.1998 24.7L33.9998 26.8C33.7998 26.9 33.8998 27.3 34.1998 27.2L39.3998 25.1C39.5998 25 39.3998 24.6 39.1998 24.7Z" fill="#D2A553"/>
<path d="M57.6997 17.2L42.3997 23.4C42.1997 23.5 42.2997 23.9 42.5997 23.8L57.8997 17.6C58.0997 17.5 57.9997 17.1 57.6997 17.2Z" fill="#D2A553"/>
<path d="M33.0998 18.7001L30.9998 23.9001C30.8998 24.1001 31.2998 24.3001 31.3998 24.1001L33.5998 19.0001C33.5998 18.7001 33.1998 18.5001 33.0998 18.7001Z" fill="#D2A553"/>
<path d="M40.9998 0.300128L34.4998 15.5001C34.3998 15.7001 34.7998 15.9001 34.8998 15.7001L41.3998 0.500128C41.4998 0.300128 41.0998 0.100128 40.9998 0.300128Z" fill="#D2A553"/>
<path d="M28.9998 6.0001L28.7998 24.3001C28.7998 24.6001 29.1998 24.6001 29.1998 24.3001L29.3998 6.0001C29.3998 5.8001 28.9998 5.8001 28.9998 6.0001Z" fill="#D2A553"/>
<path d="M12.7998 12.6999L25.6998 25.7999C25.8998 25.9999 26.1998 25.6999 25.9998 25.4999L13.0998 12.4999C12.8998 12.2999 12.5998 12.5999 12.7998 12.6999Z" fill="#D2A553"/>
<path d="M5.99985 29.0001L24.2999 29.2001C24.5999 29.2001 24.5999 28.8001 24.2999 28.8001L5.99985 28.6001C5.79985 28.6001 5.79985 29.0001 5.99985 29.0001Z" fill="#D2A553"/>
<path d="M12.6999 45.2L25.7999 32.3C25.9999 32.1 25.6999 31.8 25.4999 32L12.4999 45C12.2999 45.1 12.5999 45.4 12.6999 45.2Z" fill="#D2A553"/>
<path d="M28.9999 52.0001L29.1999 33.7001C29.1999 33.4001 28.7999 33.4001 28.7999 33.7001L28.5999 52.0001C28.5999 52.2001 28.9999 52.2001 28.9999 52.0001Z" fill="#D2A553"/>
<path d="M45.1999 45.3002L32.3999 32.2002C32.1999 32.0002 31.8999 32.3002 32.0999 32.5002L44.9999 45.5002C45.0999 45.7002 45.3999 45.4002 45.1999 45.3002Z" fill="#D2A553"/>
<path d="M51.9999 29.0003L33.6999 28.8003C33.3999 28.8003 33.3999 29.2003 33.6999 29.2003L51.9999 29.4003C52.1999 29.4003 52.1999 29.0003 51.9999 29.0003Z" fill="#D2A553"/>
<path d="M45.2997 12.8002L32.1997 25.6002C31.9997 25.8002 32.2997 26.1002 32.4997 25.9002L45.5997 13.0002C45.6997 12.9002 45.3997 12.6002 45.2997 12.8002Z" fill="#D2A553"/>
<path d="M28.9 52.8C42.0996 52.8 52.8 42.0996 52.8 28.9C52.8 15.7004 42.0996 5 28.9 5C15.7004 5 5 15.7004 5 28.9C5 42.0996 15.7004 52.8 28.9 52.8Z" fill="url(#paint0_linear_12_14249)"/>
</g>
<defs>
<linearGradient id="paint0_linear_12_14249" x1="10.7048" y1="56.9904" x2="50.7824" y2="-6.18233" gradientUnits="userSpaceOnUse">
<stop stop-color="#E7B85E" stop-opacity="0"/>
<stop offset="1" stop-color="#E7B85E"/>
</linearGradient>
<clipPath id="clip0_12_14249">
<rect width="58" height="58" fill="white"/>
</clipPath>
</defs>
</svg>
